<svg xmlns="http://www.w3.org/2000/svg" viewBox="0 0 100 100">
    <circle cx="38" cy="38" r="18" fill="#f9b233"></circle>
    <g stroke="#222" stroke-width="4" stroke-linecap="round">
        <line x1="38" y1="8" x2="38" y2="2"></line>
        <line x1="38" y1="74" x2="38" y2="68"></line>
        <line x1="8" y1="38" x2="2" y2="38"></line>
        <line x1="74" y1="38" x2="68" y2="38"></line>
        <line x1="17" y1="17" x2="13" y2="13"></line>
        <line x1="59" y1="59" x2="63" y2="63"></line>
        <line x1="59" y1="17" x2="63" y2="13"></line>
        <line x1="17" y1="59" x2="13" y2="63"></line>
    </g>
    <path d="M28 64c0-10 8-18 18-18 7 0 13 4 16 10 2-1 4-1 6-1 8 0 14 6 14 14H28z" fill="#c8c8c8" stroke="#222" stroke-width="3"></path>
    <circle cx="48" cy="67" r="2" fill="#222"></circle>
    <circle cx="57" cy="67" r="2" fill="#222"></circle>
    <circle cx="66" cy="67" r="2" fill="#222"></circle>
    <circle cx="52" cy="73" r="2" fill="#222"></circle>
    <circle cx="61" cy="73" r="2" fill="#222"></circle>
</svg>